<mxfile host="app.diagrams.net" agent="Mozilla/5.0 (Windows NT 10.0; Win64; x64) AppleWebKit/537.36 (KHTML, like Gecko) Chrome/135.0.0.0 Safari/537.36 Edg/135.0.0.0" version="26.2.13">
  <diagram name="第 1 页" id="2LfYlRE3mIWwYIfe9fvf">
    <mxGraphModel dx="1356" dy="1104" grid="1" gridSize="10" guides="1" tooltips="1" connect="1" arrows="1" fold="1" page="1" pageScale="1" pageWidth="827" pageHeight="1169" math="0" shadow="0">
      <root>
        <mxCell id="0" />
        <mxCell id="1" parent="0" />
        <mxCell id="HtQm6pH0PmszH3oQsb9N-5" style="edgeStyle=orthogonalEdgeStyle;rounded=0;orthogonalLoop=1;jettySize=auto;html=1;entryX=0;entryY=0.5;entryDx=0;entryDy=0;" edge="1" parent="1" source="HtQm6pH0PmszH3oQsb9N-3" target="HtQm6pH0PmszH3oQsb9N-4">
          <mxGeometry relative="1" as="geometry" />
        </mxCell>
        <mxCell id="HtQm6pH0PmszH3oQsb9N-3" value="开始" style="ellipse;whiteSpace=wrap;html=1;aspect=fixed;" vertex="1" parent="1">
          <mxGeometry x="10" y="270" width="80" height="80" as="geometry" />
        </mxCell>
        <mxCell id="HtQm6pH0PmszH3oQsb9N-8" style="edgeStyle=orthogonalEdgeStyle;rounded=0;orthogonalLoop=1;jettySize=auto;html=1;" edge="1" parent="1" source="HtQm6pH0PmszH3oQsb9N-4" target="HtQm6pH0PmszH3oQsb9N-6">
          <mxGeometry relative="1" as="geometry" />
        </mxCell>
        <mxCell id="HtQm6pH0PmszH3oQsb9N-4" value="打开冰箱" style="rounded=0;whiteSpace=wrap;html=1;" vertex="1" parent="1">
          <mxGeometry x="180" y="280" width="120" height="60" as="geometry" />
        </mxCell>
        <mxCell id="HtQm6pH0PmszH3oQsb9N-9" style="edgeStyle=orthogonalEdgeStyle;rounded=0;orthogonalLoop=1;jettySize=auto;html=1;" edge="1" parent="1" source="HtQm6pH0PmszH3oQsb9N-6" target="HtQm6pH0PmszH3oQsb9N-7">
          <mxGeometry relative="1" as="geometry" />
        </mxCell>
        <mxCell id="HtQm6pH0PmszH3oQsb9N-6" value="装大象" style="rounded=0;whiteSpace=wrap;html=1;" vertex="1" parent="1">
          <mxGeometry x="390" y="280" width="120" height="60" as="geometry" />
        </mxCell>
        <mxCell id="HtQm6pH0PmszH3oQsb9N-11" value="" style="edgeStyle=orthogonalEdgeStyle;rounded=0;orthogonalLoop=1;jettySize=auto;html=1;" edge="1" parent="1" source="HtQm6pH0PmszH3oQsb9N-7" target="HtQm6pH0PmszH3oQsb9N-10">
          <mxGeometry relative="1" as="geometry" />
        </mxCell>
        <mxCell id="HtQm6pH0PmszH3oQsb9N-7" value="关上冰箱" style="rounded=0;whiteSpace=wrap;html=1;" vertex="1" parent="1">
          <mxGeometry x="610" y="280" width="120" height="60" as="geometry" />
        </mxCell>
        <mxCell id="HtQm6pH0PmszH3oQsb9N-10" value="结束" style="ellipse;whiteSpace=wrap;html=1;rounded=0;" vertex="1" parent="1">
          <mxGeometry x="830" y="270" width="80" height="80" as="geometry" />
        </mxCell>
      </root>
    </mxGraphModel>
  </diagram>
</mxfile>
